# xmcd CD database file
#
# Track frame offsets:
#	150
#	18288
#	41988
#
# Disc length: 746 seconds
#
# Revision: 0
# Processed by: cddbd v1.5.1PL2 Copyright (c) Steve Scherf et al.
# Submitted via: CDex 1.51
#
DISCID=1e02e803
DTITLE=Arearea - 唄わなきゃ
DYEAR=2001
DGENRE=Japanese Pop
TTITLE0=愛のあかし
TTITLE1=いつかあなたの海に
TTITLE2=おやすみ
EXTD=YEAR: 2001
EXTT0=
EXTT1=
EXTT2=
PLAYORDER=
